HIERARCHY
ROOT Hips
{
	OFFSET -14.64140 90.27770 -84.91600
	CHANNELS 6 Xposition Yposition Zposition Zrotation Xrotation Yrotation
	JOINT Spine
	{
		OFFSET 0.00000 13.20850 -1.60436
		CHANNELS 3 Zrotation Xrotation Yrotation
		JOINT Spine1
		{
			OFFSET 0.00000 8.61716 0.00000
			CHANNELS 3 Zrotation Xrotation Yrotation
			JOINT Spine2
			{
				OFFSET 0.00000 8.61717 0.00000
				CHANNELS 3 Zrotation Xrotation Yrotation
				JOINT Spine3
				{
					OFFSET 0.00000 8.61717 0.00000
					CHANNELS 3 Zrotation Xrotation Yrotation
					JOINT Neck
					{
						OFFSET 0.00000 11.07920 1.10792
						CHANNELS 3 Zrotation Xrotation Yrotation
						JOINT Neck1
						{
							OFFSET 0.00000 7.08032 0.00000
							CHANNELS 3 Zrotation Xrotation Yrotation
							JOINT Head
							{
								OFFSET 0.00000 7.08031 0.00000
								CHANNELS 3 Zrotation Xrotation Yrotation
								End site
								{
									OFFSET 0.00000 0.00000 0.00000
								}
							}
						}
					}
					JOINT RightShoulder
					{
						OFFSET -0.01000 7.91373 5.19711
						CHANNELS 3 Zrotation Xrotation Yrotation
						JOINT RightArm
						{
							OFFSET -18.41580 0.00000 0.00000
							CHANNELS 3 Zrotation Xrotation Yrotation
							JOINT RightForeArm
							{
								OFFSET -29.11090 0.00000 0.00000
								CHANNELS 3 Zrotation Xrotation Yrotation
								JOINT RightHand
								{
									OFFSET -24.65040 0.00000 0.00000
									CHANNELS 3 Zrotation Xrotation Yrotation
									JOINT RightHandThumb1
									{
										OFFSET -5.35114 -0.85590 3.97906
										CHANNELS 3 Zrotation Xrotation Yrotation
										JOINT RightHandThumb2
										{
											OFFSET -4.52789 0.00000 0.00000
											CHANNELS 3 Zrotation Xrotation Yrotation
											JOINT RightHandThumb3
											{
												OFFSET -2.46976 0.00000 0.00000
												CHANNELS 3 Zrotation Xrotation Yrotation
												End site
												{
													OFFSET 0.00000 0.00000 0.00000
												}
											}
										}
									}
									JOINT RightHandIndex1
									{
										OFFSET -14.26970 0.00000 2.88139
										CHANNELS 3 Zrotation Xrotation Yrotation
										JOINT RightHandIndex2
										{
											OFFSET -5.48836 0.00000 0.00000
											CHANNELS 3 Zrotation Xrotation Yrotation
											JOINT RightHandIndex3
											{
												OFFSET -3.01859 0.00000 0.00000
												CHANNELS 3 Zrotation Xrotation Yrotation
												End site
												{
													OFFSET 0.00000 0.00000 0.00000
												}
											}
										}
									}
									JOINT RightHandMiddle1
									{
										OFFSET -14.26970 0.00000 -0.09147
										CHANNELS 3 Zrotation Xrotation Yrotation
										JOINT RightHandMiddle2
										{
											OFFSET -6.17441 0.00000 0.00000
											CHANNELS 3 Zrotation Xrotation Yrotation
											JOINT RightHandMiddle3
											{
												OFFSET -3.56743 0.00000 0.00000
												CHANNELS 3 Zrotation Xrotation Yrotation
												End site
												{
													OFFSET 0.00000 0.00000 0.00000
												}
											}
										}
									}
									JOINT RightHandRing1
									{
										OFFSET -12.69180 0.00000 -3.06433
										CHANNELS 3 Zrotation Xrotation Yrotation
										JOINT RightHandRing2
										{
											OFFSET -5.62556 0.00000 0.00000
											CHANNELS 3 Zrotation Xrotation Yrotation
											JOINT RightHandRing3
											{
												OFFSET -3.56744 0.00000 0.00000
												CHANNELS 3 Zrotation Xrotation Yrotation
												End site
												{
													OFFSET 0.00000 0.00000 0.00000
												}
											}
										}
									}
									JOINT RightHandPinky1
									{
										OFFSET -11.11390 0.00000 -6.03719
										CHANNELS 3 Zrotation Xrotation Yrotation
										JOINT RightHandPinky2
										{
											OFFSET -4.52789 0.00000 0.00000
											CHANNELS 3 Zrotation Xrotation Yrotation
											JOINT RightHandPinky3
											{
												OFFSET -2.46976 0.00000 0.00000
												CHANNELS 3 Zrotation Xrotation Yrotation
												End site
												{
													OFFSET 0.00000 0.00000 0.00000
												}
											}
										}
									}
								}
							}
						}
					}
					JOINT LeftShoulder
					{
						OFFSET 0.01000 7.91373 5.19711
						CHANNELS 3 Zrotation Xrotation Yrotation
						JOINT LeftArm
						{
							OFFSET 18.41580 0.00000 0.00000
							CHANNELS 3 Zrotation Xrotation Yrotation
							JOINT LeftForeArm
							{
								OFFSET 29.11090 0.00000 0.00000
								CHANNELS 3 Zrotation Xrotation Yrotation
								JOINT LeftHand
								{
									OFFSET 24.65040 0.00000 0.00000
									CHANNELS 3 Zrotation Xrotation Yrotation
									JOINT LeftHandThumb1
									{
										OFFSET 5.35114 -0.85590 3.97906
										CHANNELS 3 Zrotation Xrotation Yrotation
										JOINT LeftHandThumb2
										{
											OFFSET 4.52789 0.00000 0.00000
											CHANNELS 3 Zrotation Xrotation Yrotation
											JOINT LeftHandThumb3
											{
												OFFSET 2.46977 0.00000 0.00000
												CHANNELS 3 Zrotation Xrotation Yrotation
												End site
												{
													OFFSET 0.00000 0.00000 0.00000
												}
											}
										}
									}
									JOINT LeftHandIndex1
									{
										OFFSET 14.26970 0.00000 2.88139
										CHANNELS 3 Zrotation Xrotation Yrotation
										JOINT LeftHandIndex2
										{
											OFFSET 5.48836 0.00000 0.00000
											CHANNELS 3 Zrotation Xrotation Yrotation
											JOINT LeftHandIndex3
											{
												OFFSET 3.01859 0.00000 0.00000
												CHANNELS 3 Zrotation Xrotation Yrotation
												End site
												{
													OFFSET 0.00000 0.00000 0.00000
												}
											}
										}
									}
									JOINT LeftHandMiddle1
									{
										OFFSET 14.26970 0.00000 -0.09147
										CHANNELS 3 Zrotation Xrotation Yrotation
										JOINT LeftHandMiddle2
										{
											OFFSET 6.17440 0.00000 0.00000
											CHANNELS 3 Zrotation Xrotation Yrotation
											JOINT LeftHandMiddle3
											{
												OFFSET 3.56744 0.00000 0.00000
												CHANNELS 3 Zrotation Xrotation Yrotation
												End site
												{
													OFFSET 0.00000 0.00000 0.00000
												}
											}
										}
									}
									JOINT LeftHandRing1
									{
										OFFSET 12.69180 0.00000 -3.06433
										CHANNELS 3 Zrotation Xrotation Yrotation
										JOINT LeftHandRing2
										{
											OFFSET 5.62556 0.00000 0.00000
											CHANNELS 3 Zrotation Xrotation Yrotation
											JOINT LeftHandRing3
											{
												OFFSET 3.56744 0.00000 0.00000
												CHANNELS 3 Zrotation Xrotation Yrotation
												End site
												{
													OFFSET 0.00000 0.00000 0.00000
												}
											}
										}
									}
									JOINT LeftHandPinky1
									{
										OFFSET 11.11390 0.00000 -6.03719
										CHANNELS 3 Zrotation Xrotation Yrotation
										JOINT LeftHandPinky2
										{
											OFFSET 4.52789 0.00000 0.00000
											CHANNELS 3 Zrotation Xrotation Yrotation
											JOINT LeftHandPinky3
											{
												OFFSET 2.46976 0.00000 0.00000
												CHANNELS 3 Zrotation Xrotation Yrotation
												End site
												{
													OFFSET 0.00000 0.00000 0.00000
												}
											}
										}
									}
								}
							}
						}
					}
					JOINT pCube4
					{
						OFFSET 0.00000 10.91090 1.10792
						CHANNELS 3 Zrotation Xrotation Yrotation
						End site
						{
							OFFSET 0.00000 0.00000 0.00000
						}
					}
				}
			}
		}
	}
	JOINT RightUpLeg
	{
		OFFSET -9.98441 0.00000 0.00000
		CHANNELS 3 Zrotation Xrotation Yrotation
		JOINT RightLeg
		{
			OFFSET 0.00000 -42.11790 0.00000
			CHANNELS 3 Zrotation Xrotation Yrotation
			JOINT RightFoot
			{
				OFFSET 0.00000 -45.00020 -0.00001
				CHANNELS 3 Zrotation Xrotation Yrotation
				JOINT RightForeFoot
				{
					OFFSET 0.00000 -3.74820 0.00000
					CHANNELS 3 Zrotation Xrotation Yrotation
					JOINT RightToeBase
					{
						OFFSET 0.00000 0.06325 14.43120
						CHANNELS 3 Zrotation Xrotation Yrotation
						End site
						{
							OFFSET 0.00000 0.00000 0.00000
						}
					}
				}
			}
		}
	}
	JOINT LeftUpLeg
	{
		OFFSET 9.98441 0.00000 0.00000
		CHANNELS 3 Zrotation Xrotation Yrotation
		JOINT LeftLeg
		{
			OFFSET 0.00000 -42.11800 0.00000
			CHANNELS 3 Zrotation Xrotation Yrotation
			JOINT LeftFoot
			{
				OFFSET 0.00000 -45.00070 0.00000
				CHANNELS 3 Zrotation Xrotation Yrotation
				JOINT LeftForeFoot
				{
					OFFSET 0.00000 -3.74824 0.00000
					CHANNELS 3 Zrotation Xrotation Yrotation
					JOINT LeftToeBase
					{
						OFFSET 0.00000 0.06325 14.43110
						CHANNELS 3 Zrotation Xrotation Yrotation
						End site
						{
							OFFSET 0.00000 0.00000 0.00000
						}
					}
				}
			}
		}
	}
}
MOTION
Frames: 4
Frame Time: 0.050000
0.003338846860483682 0.04743547673929793 -0.010584647597841342 -0.044794483204590035 -0.01770041342434844 -0.03208907064486836 -1.3736523634826534 0.7916771719343756 -0.984324449432259 -0.9239730907563151 3.910843565518666 0.33787587036073774 -1.18620711108411 -1.7257143105815975 -0.7868293217771104 0.9921683692354621 0.5580503749815597 -0.83770424699833 0.7958872784752108 12.468717500684894 -2.60532280572911 -0.01019673954547088 -0.6741907016218239 -8.039607910985954 0.9306190811818745 -16.173314014733098 -0.6904668023399239 -4.609774552573035 1.4791719488879433 -15.726303357758416 72.84794350666849 23.039274580958274 3.639873549063893 2.321300168531455 1.9849090684008859 41.4744514987215 21.11338451002666 -0.1206449168516267 -3.8323776337373614 4.53178960837286 -0.13059094734790314 -1.6120098433833665 0.023757109073952228 0.007216190858592504 -56.26793449924105 0.024974262779792422 -0.025842374065554653 -56.240912307905 -38.73265651174794 -0.03981002197827885 0.006567099339397313 -0.0278617369356777 -0.002858815029353276 -0.0375293462485893 0.006143441647828457 0.013162785312354241 0.02818404908352016 -36.71291905670061 0.0368724979137617 -0.008971704842414035 -0.022824796326309783 0.007992194425469076 0.03259361377528917 0.04899586076296702 0.006075741375903713 0.0427283239920449 -19.763935949252215 0.0190516545504386 0.02065378448892044 0.025053950317823225 -0.007027654110712917 0.014845072407454286 -0.005704419768044271 -0.04531757256815037 -0.0302120883231597 24.059304659208216 0.0324859811191634 0.031477546831504916 28.858714877378798 0.02286130728217448 0.020313344760326906 28.861085269443183 -0.008332970427237407 0.014225869691713133 3.537202254831683 0.9816258544963415 13.46706102654052 -71.759174051775 26.435233535863443 -0.18071216427101922 -3.8148136123524434 -8.760156951350522 -42.240402305148315 -14.219812391600064 -0.6478287082125752 2.937110878405553 -0.46744678642050735 0.02719523883351506 -8.111044795653129 -0.025933040333229133 -0.017262041955019233 44.58988328980829 0.03478696219329071 0.005525121601479313 44.52494370068819 12.492666227585726 0.048977614397858804 -0.0343341383606811 -0.019263308637527683 -0.004715577457408815 -0.038438301221933535 -0.03613259489467575 -0.015874250352238845 -0.005590692890152986 11.092711093244093 0.025903908750176965 -0.03493871104604679 -0.004050046427338734 0.034425603250845836 -0.03588349395367268 0.041946372557779624 -0.012835339383397504 0.03819266907840397 4.7499514494936115 0.034049658210274225 -0.009363577897790987 -0.03529957791628298 0.04831258649467052 0.022808177104952088 0.00039401243468470333 0.03800162596089596 0.025115517505179645 -5.592488546892868 0.004301156010672327 -0.011993590090184697 -6.7372185804261004 0.008089561218431256 -0.03242709658282308 -6.7197409142580735 -0.007930322936707751 0.018281134732963406 0.04065210166514427 -0.03197994658307588 -0.022826761858429596 8.06975418243571 3.471041031053633 -19.186289626835578 -0.015899957352494904 10.364998114373256 0.05391919903122552 -5.600230909644515 -15.621637112149287 3.1423425586251623 0.017468754642786525 0.006558251229810367 0.02613051306493595 -0.00543512539836119 4.684154835266831 0.004595686357462478 12.440471442355767 -8.198894744007012 6.836963744870756 -0.0014644588099172982 46.36803218118706 0.04257486292486405 -4.3501028780255115 -14.715973298993076 -3.836836264026063 -0.007478442883868308 0.00879859697986745 -0.0036097615156520865 0.021113399105666973 -10.715632843331287 -0.032697845909101346 
-0.034049971874961234 -0.015620262639971445 -0.009698419467265644 0.007951453660868989 -0.048064405654625844 -0.025738708693061402 -1.2481145292779732 0.805524315443483 -1.0392811124799872 -0.961726978222919 3.88388095446289 0.3572168443925622 -1.174332590327464 -1.7369609721263868 -0.7289226479592098 0.9759786529686845 0.4951753574851133 -0.7356506289295291 0.8675640192277463 12.409279274558514 -2.807652610331828 0.04503430686805673 -0.7463372586097555 -8.546210216970294 1.046089193126512 -16.330279375600114 -0.7336992896283959 -4.6769748750340785 1.5144480483905725 -15.755819111530629 72.98955576001484 22.598609368109038 3.415517925327682 1.9559382891305248 1.9476000287820385 42.06659495666639 20.70204201959445 -0.08049000704786469 -3.8365486998583487 4.478927027509974 -0.15462300174397026 -1.6115002297503496 0.026423948717650907 0.022846601247846075 -56.20471523404485 -0.030208344144196958 -0.04890974409644611 -56.23893626143695 -38.7880630243307 0.021588756478495147 0.00024880831819642835 0.014007118969250382 -0.002570588992879234 -0.01648701490030394 0.010173545786400116 -0.008716308768700543 0.037881031354816116 -36.724706904203856 -0.023227812554443256 -0.02984331733024362 0.045021662862852245 0.03924126124894922 -0.038159861007719176 -0.03713634075128865 -0.04458926511906429 0.02723267298581064 -19.74275014852548 0.03900936677070103 -0.017356216108502964 0.03150960409866397 -0.04688545260457871 0.02209909284536649 0.018313106630294444 -0.0011100467909159872 0.03978218926829475 24.018062431923237 -0.022344751786492555 -0.0035193566969628186 28.91228208067259 0.017475181670224205 -0.023183539251268925 28.887881264286726 -0.02993284678814948 -0.015051971529788395 3.5485716387480855 0.9113915475007652 13.496648834317275 -72.04825302905004 26.890590357983335 -0.07702600899282051 -2.190856563640598 -8.976055005815388 -42.72236523655694 -13.949987092600589 -0.714153947812636 3.130983323045221 -0.46377247761367635 0.043530415418224395 -8.076753175092879 0.0016439077795132814 -0.021300589767818737 44.58180264177022 -0.019073644877511398 -0.046853672112277596 44.55130413809618 12.487665597851743 0.0064313403199976246 0.015280863292096245 0.010271802490715673 -0.03341500665122168 -0.010100329949885424 0.013831624523626697 -0.04064893499505348 0.003023308331773978 11.109449982037406 -0.02583867490714942 -0.022994584127946124 0.02661039443570309 -0.02047212665610926 -0.013547481347845234 -0.016904753475476528 -0.031809211093977226 0.006624862352354493 4.787767700951816 0.002946889690470531 -0.034832314216198576 0.021685119874737778 -0.004762807589503834 0.023623104337524837 0.04216264300695753 0.039985447446936356 -0.01899357209393833 -5.632747315681891 0.014666646757424297 0.03108034859336108 -6.699386951365003 -0.031074386067090367 -0.031679117410492334 -6.721921590908117 -0.02662331945415815 0.02512073083767729 -0.02534634954460116 0.019237024179219745 -0.033529087434096626 8.04394017413495 3.5130355749323736 -19.24397264557983 -0.036326115407640094 10.407312927154441 0.0009064887121438218 -5.592448025443051 -15.68671970667519 3.1878468200967847 0.027181290245009964 0.020241197903844724 -0.005578946394660007 -0.0028888434030466753 4.738753794227238 0.004573006122013451 12.447792892661102 -8.214437683716083 6.863246358001594 -0.0006515035332142292 46.33921221380841 0.026344621450556716 -4.321861041405615 -14.748412710536885 -3.812532123271545 -0.005308169146285407 -0.02800543724771791 -0.01926701853867776 -0.010446225227415876 -10.716319851754399 0.0035797391493891505 
-0.047205920897297415 -0.04072567200132684 0.00530116432513359 0.02370106890450313 0.04021709340250768 0.04360870721047547 -1.211297882409169 0.8867482318592795 -1.038652322069035 -0.9423932063887158 3.8907120765380854 0.35462313636861864 -1.2448292270079082 -1.7266123447159063 -0.7846552494432472 1.0490926866097963 0.5117166698374817 -0.7506301428099272 1.0085929273879257 12.34494586248226 -3.0794917818416963 0.05553784999309186 -0.8481279972145445 -8.968569339990726 1.1667193018135318 -16.5224726209452 -0.7456592841732048 -4.823504464631694 1.5901952440704328 -15.930373275139198 73.03623389621914 22.255527031962714 2.8745771161662668 1.6031339929744113 1.8523006586013941 42.371363938818426 20.489864116254402 -0.0725824416396539 -3.8480912281755675 4.51781388535058 -0.1268957435609329 -1.583283077839936 0.026410924833849415 0.0351929692966591 -56.24922890002175 0.0013241465402940408 0.027613889099998686 -56.25712725643127 -38.80455157452914 0.0309980409647392 -0.015157547328471629 0.026870884252806957 -0.014570164711815463 0.014596688175954704 0.032005401510648394 -0.0037026537544592305 -0.03381460618055868 -36.7170666609045 0.0191356746633207 -0.008471143465847588 -0.02443099651172943 0.01812432033847797 0.002089805478430702 0.04525192637476237 -0.02605208715887956 0.015387833590414218 -19.749649040308004 0.024092837595686672 0.01849838147685881 0.0026068300507049954 0.044162058526748614 -0.04221304149995927 0.010746287106271183 0.014015476806618967 0.007870967902116959 24.050370939781605 -0.04471763654990319 -0.041177439392608685 28.88588241985622 -0.03055391062762607 -0.006767587545847539 28.88177199528993 0.029563880562112944 -0.04838264250769264 3.537796616788547 0.9916081174970928 13.57152010628948 -72.18023939566177 27.34144117816653 0.16753901247384098 -1.2186161546380025 -9.020727371242046 -42.86661985288897 -13.910328979533338 -0.7104295499035773 3.2706287424084133 -0.5223622906899468 0.05811064903276765 -8.104035600108894 0.02176437368958577 -0.006735885673789911 44.53036178426281 0.010386670198508561 -0.03768805150955974 44.56859325566435 12.4148976030355 -0.005972994545284531 -0.0015865145258911586 0.03382495824021533 0.02314494813254569 -0.017585481734642285 -0.04013681350824381 0.020765265774936016 -0.04126319469288715 11.056143684222413 -0.004711442403720247 -0.04401036323180736 -0.04718319459941599 0.02654496152848132 -0.009450125381391767 0.00026340475986156783 -0.008801425340412868 0.022816077131697945 4.763936943704144 -0.019601915157353024 0.02393069376412772 0.01586346364917479 -0.00415121783372226 0.005839794489760399 -0.043254789935314786 -0.014102843687155957 0.011958586392400238 -5.574879459163734 -0.02582789780120723 0.013457868109688917 -6.708899065443771 0.021285443818425752 0.042125213307791724 -6.759176735617503 -0.03673621828186105 0.03958115428257036 0.04102817918006246 -0.03236235593069609 0.01467424138023249 8.010298627344458 3.5275168527459733 -19.187944358361676 0.03839625081785897 10.380333486408189 0.06421076517705196 -5.6268201278044785 -15.708428923719842 3.2198381895732133 0.019257489683665644 -0.022109532538681732 0.016103605372299656 0.016372155742147027 4.70594843707433 0.008012592297520705 12.455998687908837 -8.243310252164378 6.899562704277067 0.036292218042475136 46.35955603517825 0.04446783944910916 -4.347234771264865 -14.775332800913693 -3.859846900663298 -0.024241032650236007 0.01715798439414347 0.018865128756817656 0.004152073383308997 -10.792104018965464 -0.025439305570058485 
0.017151564541535637 0.008232095141545628 0.02522287724440383 0.0145886365997829 -0.04388356001182678 -0.02840882806947971 -1.1161048691318272 0.8873120707457746 -1.0954209378445843 -0.8894883381539359 3.8885573933093753 0.37467800485869773 -1.1967840640846261 -1.6998329082020764 -0.8016881438568231 1.0521481062596758 0.47112732079275105 -0.7377507669780754 0.963924130963758 12.267265166830072 -3.200023250133786 0.13074264443818162 -0.9553209706183411 -9.204627123062858 1.2608056978062474 -16.762485538922963 -0.8092051976421055 -4.901880606328818 1.5365594220659993 -16.07812679472241 72.98893933621783 21.988396714086036 2.1313124326562027 1.0124736795681797 1.6030743375624579 42.36787444818399 20.297694742106813 -0.0864880695139675 -3.7891182902650686 4.5431516600216355 -0.11492745390175381 -1.5951630107272874 -0.02817624832853147 0.026195524407350686 -56.229801490206725 0.01556447366354361 0.02185520961059907 -56.21028201578466 -38.7221773330257 0.004808626893270317 0.044816497785268 0.008516918343494911 0.031248927322376684 0.027405841612987855 0.04181771880615789 -0.014605214890448593 -0.017813066572580215 -36.653007070281475 0.04789122550073554 -0.01279949603774556 0.005839353101988159 -0.01060362449569568 0.007214547886732411 -0.011508645545610667 0.0230415774489554 -0.00459940931858943 -19.76003650597511 0.013395691982967198 0.04577860964191046 -0.022345392769592624 -0.0024277298539771308 0.012041160707214947 -0.00561552358024939 -0.004019266232845532 -0.0074133981230011985 24.035456772118568 -0.04017789530742749 -0.009868384602399503 28.871565863073688 0.014538546348513402 -0.025729705864503367 28.907232495570458 0.03008361760904038 -0.011486456276263383 3.5733057686832073 0.9247338265036691 13.60768340903283 -72.25945975082062 27.72760521951392 0.37532080946789304 -0.4841643141489029 -9.131927510347115 -42.679939051473376 -13.886343427513578 -0.7432225612993892 3.3211475387384524 -0.4729096275246405 0.07115828063495246 -8.144187576899702 -0.007375134694951765 -0.032150805630286695 44.54409779299891 -0.031955922526583 -0.030163505926380625 44.58343277511208 12.48804120554063 0.04464912561483399 0.03662668693609041 0.03273381980631006 -0.012229258170287222 -0.029549943989381253 0.028536368220432384 -0.01074852578854937 -0.02525317674346956 11.074338453779651 -0.018574059708566855 0.03331196018608436 0.027948228632972527 0.019481401256557774 0.047236651948155 -0.031087926901353077 0.04242171245671423 -0.04544401624917528 4.7935852852765715 -0.027271283489646116 0.013343390556727234 -0.0017750962823699721 -0.007778746576084115 -0.00486074456658807 -0.03971893629494265 -0.00970814698238169 0.03516272077488025 -5.596237023226399 0.0013858158915376639 0.00956536902752342 -6.716645869505623 0.03765374548776502 -0.03448791821286244 -6.707667009410561 0.031013856303859753 -0.028603881957742227 0.04092523272162482 0.0061614618845739905 0.02655853311618761 8.065999835080257 3.5077574312304773 -19.232291942242785 -0.019668751694587996 10.39883134980366 -0.006059487524076316 -5.632643269268582 -15.69208965973385 3.238518875510111 0.015923648328483937 0.009421217928439782 0.02804155269044504 0.03546840664110268 4.678589133178402 0.03408970735827788 12.468115706383488 -8.24937195029878 6.84622130732266 -0.036272229873743025 46.418122116024456 -0.0033219085050705524 -4.357713780271623 -14.793282672671946 -3.8033610471009207 0.022115879783526905 0.012760701880657196 0.03892766918399597 -0.017165825525170368 -10.72663451078152 0.03167874348622926 
